<svg width="33" height="33" viewBox="0 0 33 33" fill="none" xmlns="http://www.w3.org/2000/svg">
<path d="M1.64531 31.5642H30.9189C31.2565 31.5642 31.5459 31.2748 31.5459 30.9373V30.1978C31.562 29.9727 31.5941 28.8635 30.8546 27.6418C30.4045 26.8701 29.7293 26.195 28.8773 25.6484C27.8324 24.9893 26.5142 24.5231 24.9067 24.2337C24.9067 24.2337 23.7171 24.073 22.4953 23.7675C20.3894 23.221 20.1965 22.7387 20.1965 22.7387C20.1805 22.6905 20.1644 22.6423 20.1483 22.6101C20.1322 22.5136 20.084 22.1761 20.1644 21.2758C20.3734 18.9931 21.5951 17.6427 22.5757 16.5657C22.8972 16.212 23.1866 15.8905 23.4116 15.569C24.3923 14.2026 24.4726 12.6593 24.4887 12.5629C24.4887 12.37 24.4566 12.2092 24.4083 12.0484C24.3119 11.7591 24.135 11.5662 24.0064 11.4376C23.9743 11.4054 23.9421 11.3733 23.91 11.3411C23.91 11.325 23.8778 11.2929 23.8939 11.1482C23.9904 10.5695 24.0386 10.1033 24.0707 9.65319C24.1029 8.84941 24.135 7.64374 23.9421 6.47022C23.91 6.26124 23.8618 6.05226 23.7975 5.81112C23.5724 4.99127 23.2187 4.30002 22.7365 3.73737C22.6561 3.64092 20.5984 1.48679 14.6505 1.05275C13.8306 0.988448 13.0268 1.0206 12.223 1.05275C12.0301 1.06883 11.7729 1.0849 11.5157 1.1492C10.9048 1.30996 10.7441 1.69577 10.6959 1.90476C10.6316 2.27449 10.7602 2.54778 10.8405 2.74069C10.8405 2.77284 10.8566 2.80499 10.8405 2.88537C10.6959 3.09435 10.4869 3.28726 10.2618 3.48016C10.1975 3.52839 8.70249 4.81444 8.62211 6.4863C8.39705 7.77234 8.41313 9.76571 8.68641 11.1321C8.70249 11.2125 8.71856 11.325 8.68641 11.4054C8.39705 11.6466 8.07554 11.9359 8.07554 12.595C8.09162 12.6593 8.17199 14.2026 9.1526 15.569C9.37766 15.8905 9.66702 16.212 9.97246 16.5657C10.9691 17.6427 12.1909 18.9931 12.3999 21.2758C12.4802 22.1761 12.432 22.5136 12.4159 22.6101C12.3999 22.6423 12.3838 22.6905 12.3677 22.7387C12.3677 22.7387 12.1748 23.221 10.0689 23.7515C8.86324 24.073 7.65758 24.2337 7.62542 24.2337C6.06609 24.4909 4.76397 24.9571 3.71906 25.6162C2.86705 26.1628 2.19188 26.8219 1.72569 27.6096C0.986211 28.8474 1.00229 29.9888 1.01836 30.1978V30.9373C1.01836 31.2748 1.29165 31.5642 1.64531 31.5642Z" stroke="#808080" stroke-width="2.5" stroke-linejoin="round"/>
</svg>
